<svg width="40" height="40" viewBox="0 0 40 40" fill="none" xmlns="http://www.w3.org/2000/svg">
<g clip-path="url(#clip0_6_151)">
<path d="M13.3333 23.75C13.3333 24.4333 12.7667 25 12.0833 25C11.5333 25 11.0833 24.65 10.9 24.1666H7.5V29.1666H10.9C11.0667 28.6833 11.5333 28.3333 12.0833 28.3333C12.7667 28.3333 13.3333 28.9 13.3333 29.5833V30C13.3333 30.9166 12.5833 31.6666 11.6667 31.6666H6.66667C5.75 31.6666 5 30.9166 5 30V23.3333C5 22.4166 5.75 21.6666 6.66667 21.6666H11.6667C12.5833 21.6666 13.3333 22.4166 13.3333 23.3333V23.75ZM21.7333 24.1666C21.9 24.65 22.3667 25 22.9167 25C23.6 25 24.1667 24.4333 24.1667 23.75V23.3333C24.1667 22.4166 23.4167 21.6666 22.5 21.6666H17.5C16.5833 21.6666 15.8333 22.4166 15.8333 23.3333V25.8333C15.8333 26.75 16.5833 27.5 17.5 27.5H21.6667V29.1666H18.2667C18.1 28.6833 17.6333 28.3333 17.0833 28.3333C16.4 28.3333 15.8333 28.9 15.8333 29.5833V30C15.8333 30.9166 16.5833 31.6666 17.5 31.6666H22.5C23.4167 31.6666 24.1667 30.9166 24.1667 30V27.5C24.1667 26.5833 23.4167 25.8333 22.5 25.8333H18.3333V24.1666H21.7333ZM32.5667 24.1666C32.7333 24.65 33.2 25 33.75 25C34.4333 25 35 24.4333 35 23.75V23.3333C35 22.4166 34.25 21.6666 33.3333 21.6666H28.3333C27.4167 21.6666 26.6667 22.4166 26.6667 23.3333V25.8333C26.6667 26.75 27.4167 27.5 28.3333 27.5H32.5V29.1666H29.1C28.9333 28.6833 28.4667 28.3333 27.9167 28.3333C27.2333 28.3333 26.6667 28.9 26.6667 29.5833V30C26.6667 30.9166 27.4167 31.6666 28.3333 31.6666H33.3333C34.25 31.6666 35 30.9166 35 30V27.5C35 26.5833 34.25 25.8333 33.3333 25.8333H29.1667V24.1666H32.5667Z" fill="#BECBFA"/>
</g>
<defs>
<clipPath id="clip0_6_151">
<rect width="40" height="40" fill="white"/>
</clipPath>
</defs>
</svg>
