<svg width="40" height="40" viewBox="0 0 40 40" fill="none" xmlns="http://www.w3.org/2000/svg">
<g clip-path="url(#clip0_6_157)">
<path d="M35 31.6666C34.0833 31.6666 33.3333 30.9166 33.3333 30V22.9166C33.3333 22.2333 33.9 21.6666 34.5833 21.6666C35.2667 21.6666 35.8333 22.2333 35.8333 22.9166V29.1666H38.75C39.4333 29.1666 40 29.7333 40 30.4166C40 31.1 39.4333 31.6666 38.75 31.6666H35ZM26.6667 24.15H28.3333V30.4166C28.3333 31.1 28.9 31.6666 29.5833 31.6666C30.2667 31.6666 30.8333 31.1 30.8333 30.4166V23.3333C30.8333 22.4166 30.0833 21.6666 29.1667 21.6666H21.6667C20.75 21.6666 20 22.4166 20 23.3333V30.4166C20 31.1 20.5667 31.6666 21.25 31.6666C21.9333 31.6666 22.5 31.1 22.5 30.4166V24.1666H24.1667V28.75C24.1667 29.4333 24.7333 30 25.4167 30C26.1 30 26.6667 29.4333 26.6667 28.75V24.15ZM8.33333 22.9166C8.33333 22.2333 7.76667 21.6666 7.08333 21.6666C6.4 21.6666 5.83333 22.2333 5.83333 22.9166V25H2.5V22.9166C2.5 22.2333 1.93333 21.6666 1.25 21.6666C0.566667 21.6666 0 22.2333 0 22.9166V30.4166C0 31.1 0.566667 31.6666 1.25 31.6666C1.93333 31.6666 2.5 31.1 2.5 30.4166V27.5H5.83333V30.4166C5.83333 31.1 6.4 31.6666 7.08333 31.6666C7.76667 31.6666 8.33333 31.1 8.33333 30.4166V22.9166ZM17.0833 24.1666C17.7667 24.1666 18.3333 23.6 18.3333 22.9166C18.3333 22.2333 17.7667 21.6666 17.0833 21.6666H11.25C10.5667 21.6666 10 22.2333 10 22.9166C10 23.6 10.5667 24.1666 11.25 24.1666H12.9167V30.4166C12.9167 31.1 13.4833 31.6666 14.1667 31.6666C14.85 31.6666 15.4167 31.1 15.4167 30.4166V24.1666H17.0833Z" fill="#BECBFA"/>
</g>
<defs>
<clipPath id="clip0_6_157">
<rect width="40" height="40" fill="white"/>
</clipPath>
</defs>
</svg>
