<svg width="40" height="40" viewBox="0 0 40 40" fill="none" xmlns="http://www.w3.org/2000/svg">
<g clip-path="url(#clip0_6_145)">
<path d="M25.9 24.1666C26.0667 24.65 26.5333 25 27.0833 25C27.7667 25 28.3333 24.4333 28.3333 23.75V23.3333C28.3333 22.4166 27.5833 21.6666 26.6667 21.6666H21.6667C20.75 21.6666 20 22.4166 20 23.3333V25.8333C20 26.75 20.75 27.5 21.6667 27.5H25.8333V29.1666H22.4333C22.2667 28.6833 21.8 28.3333 21.25 28.3333C20.5667 28.3333 20 28.9 20 29.5833V30C20 30.9166 20.75 31.6666 21.6667 31.6666H26.6667C27.5833 31.6666 28.3333 30.9166 28.3333 30V27.5C28.3333 26.5833 27.5833 25.8333 26.6667 25.8333H22.5V24.1666H25.9ZM12.5 29.1666H15V22.9166C15 22.2333 15.5667 21.6666 16.25 21.6666C16.9333 21.6666 17.5 22.2333 17.5 22.9166V29.1666C17.5 30.55 16.3833 31.6666 15 31.6666H12.5C11.1167 31.6666 10 30.55 10 29.1666V28.75C10 28.0666 10.5667 27.5 11.25 27.5C11.9333 27.5 12.5 28.0666 12.5 28.75V29.1666Z" fill="#BECBFA"/>
</g>
<defs>
<clipPath id="clip0_6_145">
<rect width="40" height="40" fill="white"/>
</clipPath>
</defs>
</svg>
