<svg width="354" height="60" viewBox="0 0 354 60" fill="none" xmlns="http://www.w3.org/2000/svg">
<path d="M21.64 46L19.912 38.848H10.216L8.536 46H0.376L10.408 12.736H19.96L29.992 46H21.64ZM11.56 33.136H18.568L15.064 18.448L11.56 33.136ZM39.0565 46.816C36.8485 46.816 35.1205 46.192 33.8725 44.944C32.6565 43.664 32.0485 41.856 32.0485 39.52V10.384L39.6325 9.568V39.232C39.6325 40.288 40.0645 40.816 40.9285 40.816C41.3765 40.816 41.7925 40.736 42.1765 40.576L43.6645 45.952C42.2885 46.528 40.7525 46.816 39.0565 46.816ZM60.9865 19.696C64.0265 19.696 66.3625 20.896 67.9945 23.296C69.6265 25.664 70.4425 28.992 70.4425 33.28C70.4425 35.904 70.0265 38.24 69.1945 40.288C68.3945 42.336 67.2265 43.936 65.6905 45.088C64.1865 46.24 62.3945 46.816 60.3145 46.816C58.9385 46.816 57.6745 46.528 56.5225 45.952C55.4025 45.376 54.4425 44.576 53.6425 43.552L53.2585 46H46.5385V10.384L54.1225 9.568V23.104C54.8905 22.048 55.8665 21.216 57.0505 20.608C58.2665 20 59.5785 19.696 60.9865 19.696ZM58.1065 41.296C61.0825 41.296 62.5705 38.624 62.5705 33.28C62.5705 30.24 62.2185 28.144 61.5145 26.992C60.8105 25.84 59.7865 25.264 58.4425 25.264C56.7465 25.264 55.3065 26.256 54.1225 28.24V38.848C54.6025 39.616 55.1785 40.224 55.8505 40.672C56.5545 41.088 57.3065 41.296 58.1065 41.296ZM97.4031 32.752C97.4031 33.808 97.3551 34.72 97.2591 35.488H81.4671C81.7231 37.632 82.3311 39.136 83.2911 40C84.2511 40.864 85.5791 41.296 87.2751 41.296C88.2991 41.296 89.2911 41.12 90.2511 40.768C91.2111 40.384 92.2511 39.808 93.3711 39.04L96.4911 43.264C93.5151 45.632 90.2031 46.816 86.5551 46.816C82.4271 46.816 79.2591 45.6 77.0511 43.168C74.8431 40.736 73.7391 37.472 73.7391 33.376C73.7391 30.784 74.2031 28.464 75.1311 26.416C76.0591 24.336 77.4191 22.704 79.2111 21.52C81.0031 20.304 83.1471 19.696 85.6431 19.696C89.3231 19.696 92.2031 20.848 94.2831 23.152C96.3631 25.456 97.4031 28.656 97.4031 32.752ZM89.9631 30.592C89.8991 26.688 88.5231 24.736 85.8351 24.736C84.5231 24.736 83.4991 25.216 82.7631 26.176C82.0591 27.136 81.6271 28.72 81.4671 30.928H89.9631V30.592ZM115.488 19.792C116.416 19.792 117.264 19.904 118.032 20.128L116.832 27.472C115.872 27.248 115.104 27.136 114.528 27.136C113.024 27.136 111.872 27.664 111.072 28.72C110.304 29.744 109.696 31.296 109.248 33.376V46H101.664V20.512H108.288L108.912 25.456C109.488 23.696 110.352 22.32 111.504 21.328C112.688 20.304 114.016 19.792 115.488 19.792ZM136.913 44.8C135.985 45.44 134.897 45.936 133.649 46.288C132.433 46.64 131.217 46.816 130.001 46.816C124.433 46.784 121.649 43.712 121.649 37.6V25.792H118.049V20.512H121.649V14.992L129.233 14.128V20.512H135.089L134.273 25.792H129.233V37.504C129.233 38.688 129.425 39.536 129.809 40.048C130.193 40.56 130.801 40.816 131.633 40.816C132.497 40.816 133.409 40.544 134.369 40L136.913 44.8ZM149.641 19.696C153.545 19.696 156.601 20.896 158.809 23.296C161.017 25.664 162.121 28.992 162.121 33.28C162.121 36 161.609 38.384 160.585 40.432C159.593 42.448 158.153 44.016 156.265 45.136C154.409 46.256 152.201 46.816 149.641 46.816C145.769 46.816 142.713 45.632 140.473 43.264C138.265 40.864 137.161 37.52 137.161 33.232C137.161 30.512 137.657 28.144 138.649 26.128C139.673 24.08 141.113 22.496 142.969 21.376C144.857 20.256 147.081 19.696 149.641 19.696ZM149.641 25.264C148.105 25.264 146.953 25.92 146.185 27.232C145.417 28.512 145.033 30.512 145.033 33.232C145.033 36.016 145.401 38.048 146.137 39.328C146.905 40.608 148.073 41.248 149.641 41.248C151.177 41.248 152.329 40.608 153.097 39.328C153.865 38.016 154.249 36 154.249 33.28C154.249 30.496 153.865 28.464 153.097 27.184C152.361 25.904 151.209 25.264 149.641 25.264ZM191.751 11.92C193.831 11.92 195.671 12.224 197.271 12.832C198.903 13.44 200.439 14.352 201.879 15.568L198.135 20.032C197.143 19.264 196.167 18.688 195.207 18.304C194.247 17.92 193.223 17.728 192.135 17.728C189.895 17.728 188.119 18.672 186.807 20.56C185.527 22.448 184.887 25.36 184.887 29.296C184.887 33.168 185.527 36.048 186.807 37.936C188.119 39.792 189.927 40.72 192.231 40.72C193.447 40.72 194.551 40.496 195.543 40.048C196.535 39.568 197.607 38.896 198.759 38.032L202.263 42.544C201.015 43.792 199.495 44.816 197.703 45.616C195.943 46.416 193.991 46.816 191.847 46.816C188.775 46.816 186.103 46.144 183.831 44.8C181.559 43.456 179.783 41.472 178.503 38.848C177.255 36.192 176.631 33.008 176.631 29.296C176.631 25.68 177.271 22.56 178.551 19.936C179.863 17.312 181.655 15.328 183.927 13.984C186.231 12.608 188.839 11.92 191.751 11.92ZM225.42 38.608C225.42 39.568 225.548 40.272 225.804 40.72C226.092 41.168 226.54 41.504 227.148 41.728L225.564 46.672C223.996 46.544 222.716 46.208 221.724 45.664C220.732 45.088 219.964 44.192 219.42 42.976C217.756 45.536 215.196 46.816 211.74 46.816C209.212 46.816 207.196 46.08 205.692 44.608C204.188 43.136 203.436 41.216 203.436 38.848C203.436 36.064 204.46 33.936 206.508 32.464C208.556 30.992 211.516 30.256 215.388 30.256H217.98V29.152C217.98 27.648 217.66 26.624 217.02 26.08C216.38 25.504 215.26 25.216 213.66 25.216C212.828 25.216 211.82 25.344 210.636 25.6C209.452 25.824 208.236 26.144 206.988 26.56L205.26 21.568C206.86 20.96 208.492 20.496 210.156 20.176C211.852 19.856 213.42 19.696 214.859 19.696C218.508 19.696 221.18 20.448 222.876 21.952C224.572 23.456 225.42 25.712 225.42 28.72V38.608ZM213.948 41.392C215.676 41.392 217.02 40.576 217.98 38.944V34.432H216.108C214.38 34.432 213.084 34.736 212.22 35.344C211.388 35.952 210.972 36.896 210.972 38.176C210.972 39.2 211.228 40 211.74 40.576C212.284 41.12 213.02 41.392 213.948 41.392ZM246.388 19.696C248.596 19.696 250.324 20.368 251.572 21.712C252.82 23.056 253.444 24.944 253.444 27.376V46H245.86V28.672C245.86 27.392 245.652 26.512 245.236 26.032C244.852 25.52 244.26 25.264 243.46 25.264C241.924 25.264 240.452 26.368 239.044 28.576V46H231.46V20.512H238.084L238.612 23.536C239.7 22.256 240.868 21.296 242.116 20.656C243.396 20.016 244.82 19.696 246.388 19.696ZM281.388 32.752C281.388 33.808 281.34 34.72 281.244 35.488H265.452C265.708 37.632 266.316 39.136 267.276 40C268.236 40.864 269.564 41.296 271.26 41.296C272.284 41.296 273.276 41.12 274.236 40.768C275.196 40.384 276.236 39.808 277.356 39.04L280.476 43.264C277.5 45.632 274.188 46.816 270.54 46.816C266.412 46.816 263.244 45.6 261.036 43.168C258.828 40.736 257.724 37.472 257.724 33.376C257.724 30.784 258.188 28.464 259.116 26.416C260.044 24.336 261.404 22.704 263.196 21.52C264.988 20.304 267.132 19.696 269.628 19.696C273.308 19.696 276.188 20.848 278.268 23.152C280.348 25.456 281.388 28.656 281.388 32.752ZM273.948 30.592C273.884 26.688 272.508 24.736 269.82 24.736C268.508 24.736 267.484 25.216 266.748 26.176C266.044 27.136 265.612 28.72 265.452 30.928H273.948V30.592ZM303.178 20.512V25.84L291.658 40.24H303.418L302.746 46H282.874V40.624L294.442 26.224H283.882V20.512H303.178ZM314.841 20.512V46H307.257V20.512H314.841ZM311.001 7.072C312.313 7.072 313.385 7.488 314.217 8.32C315.081 9.12 315.513 10.144 315.513 11.392C315.513 12.64 315.081 13.68 314.217 14.512C313.385 15.312 312.313 15.712 311.001 15.712C309.689 15.712 308.617 15.312 307.785 14.512C306.953 13.68 306.537 12.64 306.537 11.392C306.537 10.144 306.953 9.12 307.785 8.32C308.617 7.488 309.689 7.072 311.001 7.072ZM335.732 19.696C337.94 19.696 339.668 20.368 340.916 21.712C342.164 23.056 342.788 24.944 342.788 27.376V46H335.204V28.672C335.204 27.392 334.996 26.512 334.58 26.032C334.196 25.52 333.604 25.264 332.804 25.264C331.268 25.264 329.796 26.368 328.388 28.576V46H320.804V20.512H327.428L327.956 23.536C329.044 22.256 330.212 21.296 331.46 20.656C332.74 20.016 334.164 19.696 335.732 19.696Z" fill="#141414"/>
<circle cx="350" cy="42" r="4" fill="#7589D0"/>
</svg>
